<svg width="66" height="66" viewBox="0 0 66 66" fill="none" xmlns="http://www.w3.org/2000/svg">
<rect width="66" height="66" fill="#E5E5E5"/>
<g clip-path="url(#clip0_0_1)">
<rect width="66" height="66" fill="white"/>
<path d="M33 63C29.0593 63.0039 25.1564 62.2307 21.5149 60.7244C17.8733 59.2182 14.5646 57.0085 11.778 54.222C8.99147 51.4355 6.78184 48.1267 5.27559 44.4852C3.76935 40.8436 2.99607 36.9408 3.00002 33V32.4C3.12004 26.5182 4.9659 20.8014 8.30818 15.9601C11.6505 11.1187 16.3418 7.36629 21.7991 5.16918C27.2564 2.97206 33.2391 2.42713 39.0035 3.60211C44.768 4.77709 50.0601 7.62017 54.2221 11.778C58.4212 15.9736 61.2813 21.3207 62.4403 27.1425C63.5993 32.9642 63.0052 38.9989 60.7331 44.4829C58.461 49.9668 54.6131 54.6535 49.6764 57.9497C44.7397 61.2459 38.936 63.0035 33 63V63ZM33 37.23L40.7701 45L45.0001 40.77L37.23 33L45.0001 25.23L40.7701 21L33 28.77L25.23 21L21 25.23L28.77 33L21 40.77L25.23 45L33 37.233V37.23Z" fill="black"/>
</g>
<defs>
<clipPath id="clip0_0_1">
<rect width="66" height="66" fill="white"/>
</clipPath>
</defs>
</svg>
