<svg width="66" height="66" viewBox="0 0 66 66" fill="none" xmlns="http://www.w3.org/2000/svg">
<rect width="66" height="66" fill="#E5E5E5"/>
<rect width="66" height="66" fill="white"/>
<path d="M33.0027 6.33867C18.2773 6.33867 6.33868 18.2773 6.33868 33.0027C6.33868 46.3093 16.088 57.3387 28.8373 59.3467V40.712H22.064V33.0027H28.8373V27.128C28.8373 20.44 32.8187 16.752 38.9067 16.752C41.824 16.752 44.88 17.272 44.88 17.272V23.8293H41.5093C38.2027 23.8293 37.168 25.888 37.168 27.9973V32.9973H44.5573L43.376 40.7067H37.168V59.3414C49.9173 57.344 59.6667 46.312 59.6667 33.0027C59.6667 18.2773 47.728 6.33867 33.0027 6.33867V6.33867Z" fill="black"/>
</svg>
