<svg width="66" height="66" viewBox="0 0 66 66" fill="none" xmlns="http://www.w3.org/2000/svg">
<rect width="66" height="66" fill="#E8E8E8" fill-opacity="0.01"/>
<g clip-path="url(#clip0_0_1)">
<rect width="66" height="66" fill="#E8E8E8" fill-opacity="0.01"/>
<path d="M62.8233 20.6833C62.7897 18.1587 62.3171 15.6593 61.4267 13.2967C60.6545 11.3038 59.4751 9.494 57.9639 7.98277C56.4527 6.47154 54.6428 5.29217 52.65 4.52C50.3178 3.64453 47.8539 3.17114 45.3633 3.12C42.1567 2.97667 41.14 2.93667 33 2.93667C24.86 2.93667 23.8167 2.93667 20.6333 3.12C18.1439 3.17152 15.6812 3.6449 13.35 4.52C11.3569 5.29163 9.54673 6.47082 8.03543 7.98211C6.52414 9.4934 5.34495 11.3035 4.57332 13.2967C3.69609 15.6271 3.22373 18.0904 3.17666 20.58C3.03332 23.79 2.98999 24.8067 2.98999 32.9467C2.98999 41.0867 2.98999 42.1267 3.17666 45.3133C3.22666 47.8067 3.69666 50.2667 4.57332 52.6033C5.34625 54.5959 6.52631 56.4053 8.03811 57.9159C9.54991 59.4266 11.3602 60.6053 13.3533 61.3767C15.6781 62.2873 18.1412 62.7946 20.6367 62.8767C23.8467 63.02 24.8633 63.0633 33.0033 63.0633C41.1433 63.0633 42.1867 63.0633 45.37 62.8767C47.8605 62.8276 50.3245 62.3553 52.6567 61.48C54.649 60.7069 56.4583 59.5272 57.9695 58.0161C59.4806 56.505 60.6603 54.6956 61.4333 52.7033C62.31 50.37 62.78 47.91 62.83 45.4133C62.9733 42.2067 63.0167 41.19 63.0167 33.0467C63.01 24.9067 63.01 23.8733 62.8233 20.6833V20.6833ZM32.98 48.34C24.4667 48.34 17.57 41.4433 17.57 32.93C17.57 24.4167 24.4667 17.52 32.98 17.52C37.067 17.52 40.9866 19.1435 43.8765 22.0335C46.7664 24.9234 48.39 28.843 48.39 32.93C48.39 37.017 46.7664 40.9366 43.8765 43.8265C40.9866 46.7164 37.067 48.34 32.98 48.34V48.34ZM49.0033 20.5433C48.5313 20.5438 48.0639 20.4511 47.6277 20.2707C47.1915 20.0903 46.7952 19.8256 46.4615 19.4918C46.1277 19.1581 45.863 18.7618 45.6826 18.3256C45.5022 17.8895 45.4096 17.422 45.41 16.95C45.41 16.4783 45.5029 16.0113 45.6834 15.5755C45.8639 15.1398 46.1285 14.7438 46.462 14.4103C46.7955 14.0768 47.1914 13.8122 47.6272 13.6317C48.0629 13.4512 48.53 13.3583 49.0017 13.3583C49.4733 13.3583 49.9404 13.4512 50.3761 13.6317C50.8119 13.8122 51.2078 14.0768 51.5414 14.4103C51.8749 14.7438 52.1394 15.1398 52.3199 15.5755C52.5004 16.0113 52.5933 16.4783 52.5933 16.95C52.5933 18.9367 50.9867 20.5433 49.0033 20.5433Z" fill="black"/>
<path d="M32.98 42.94C38.5083 42.94 42.99 38.4584 42.99 32.93C42.99 27.4016 38.5083 22.92 32.98 22.92C27.4516 22.92 22.97 27.4016 22.97 32.93C22.97 38.4584 27.4516 42.94 32.98 42.94Z" fill="black"/>
</g>
<defs>
<clipPath id="clip0_0_1">
<rect width="66" height="66" fill="white"/>
</clipPath>
</defs>
</svg>
