<svg width="66" height="66" viewBox="0 0 66 66" fill="none" xmlns="http://www.w3.org/2000/svg">
<rect width="66" height="66" fill="#E5E5E5"/>
<rect width="66" height="66" fill="white"/>
<path d="M57.6042 23.4927C57.5765 21.4415 57.1866 19.4106 56.452 17.491C55.815 15.8719 54.842 14.4014 53.5952 13.1735C52.3484 11.9456 50.8553 10.9874 49.2112 10.36C47.2872 9.64868 45.2545 9.26405 43.1997 9.2225C40.5542 9.10604 39.7155 9.07354 33 9.07354C26.2845 9.07354 25.4238 9.07354 22.7975 9.2225C20.7437 9.26436 18.712 9.64898 16.7888 10.36C15.1444 10.987 13.6511 11.945 12.4042 13.173C11.1574 14.4009 10.1846 15.8716 9.54801 17.491C8.8243 19.3845 8.4346 21.3859 8.39576 23.4088C8.27751 26.0169 8.24176 26.8429 8.24176 33.4567C8.24176 40.0704 8.24176 40.9154 8.39576 43.5046C8.43701 45.5304 8.82476 47.5292 9.54801 49.4277C10.1857 51.0466 11.1592 52.5168 12.4065 53.7442C13.6537 54.9716 15.1472 55.9293 16.7915 56.556C18.7094 57.296 20.7415 57.7081 22.8003 57.7748C25.4485 57.8912 26.2873 57.9265 33.0028 57.9265C39.7182 57.9265 40.579 57.9265 43.2052 57.7748C45.2599 57.7349 47.2927 57.3512 49.2167 56.64C50.8604 56.0119 52.3531 55.0534 53.5998 53.8256C54.8465 52.5978 55.8197 51.1277 56.4575 49.509C57.1807 47.6131 57.5685 45.6144 57.6097 43.5858C57.728 40.9804 57.7637 40.1544 57.7637 33.5379C57.7582 26.9242 57.7582 26.0846 57.6042 23.4927V23.4927ZM32.9835 45.9637C25.96 45.9637 20.2703 40.3602 20.2703 33.4431C20.2703 26.526 25.96 20.9225 32.9835 20.9225C36.3553 20.9225 39.5889 22.2416 41.9731 24.5897C44.3573 26.9378 45.6967 30.1225 45.6967 33.4431C45.6967 36.7638 44.3573 39.9485 41.9731 42.2965C39.5889 44.6446 36.3553 45.9637 32.9835 45.9637V45.9637ZM46.2027 23.379C45.8133 23.3793 45.4277 23.304 45.0679 23.1574C44.708 23.0109 44.3811 22.7958 44.1057 22.5246C43.8304 22.2534 43.612 21.9315 43.4632 21.5771C43.3143 21.2227 43.2379 20.8429 43.2382 20.4594C43.2382 20.0761 43.3149 19.6967 43.4638 19.3426C43.6127 18.9886 43.831 18.6669 44.1061 18.3959C44.3813 18.1249 44.7079 17.9099 45.0674 17.7633C45.4269 17.6166 45.8122 17.5411 46.2014 17.5411C46.5905 17.5411 46.9758 17.6166 47.3353 17.7633C47.6948 17.9099 48.0215 18.1249 48.2966 18.3959C48.5718 18.6669 48.79 18.9886 48.9389 19.3426C49.0879 19.6967 49.1645 20.0761 49.1645 20.4594C49.1645 22.0735 47.839 23.379 46.2027 23.379Z" fill="black"/>
<path d="M32.9835 41.5763C37.5444 41.5763 41.2417 37.9349 41.2417 33.4431C41.2417 28.9513 37.5444 25.31 32.9835 25.31C28.4226 25.31 24.7252 28.9513 24.7252 33.4431C24.7252 37.9349 28.4226 41.5763 32.9835 41.5763Z" fill="black"/>
</svg>
