<svg width="672" height="141" viewBox="0 0 672 141" fill="none" xmlns="http://www.w3.org/2000/svg">
<rect width="672" height="141" fill="#E5E5E5"/>
<rect width="672" height="141" fill="white"/>
<path d="M40.4375 103V99.625H30.4375V68.75H38.4375L57.4375 103.125L78.4375 103C78.4375 101.167 77.8958 100.125 76.8125 99.875C76.3125 99.7917 75.8125 99.75 75.3125 99.75H72.6875L53.0625 67.375C61.5625 65.125 66.9792 60.625 69.3125 53.875C69.9792 51.7917 70.3125 49.7083 70.3125 47.625C70.3125 41.375 67.5625 36.375 62.0625 32.625C57.4792 29.5417 51.8958 28 45.3125 28H5.0625V31.375H15.0625V99.625H5.0625V103H40.4375ZM39.0625 31.375C45.8125 31.375 50.3542 34.5 52.6875 40.75C53.5208 43 53.9375 45.4167 53.9375 48C53.9375 54.6667 51.8125 59.5417 47.5625 62.625C45.3125 64.2083 42.7292 65 39.8125 65H30.4375V31.375H39.0625ZM143.188 51.5L142.688 28H81.6875V31.375H91.6875V99.625H81.6875V103H142.688L143.188 79.5H139.938L137.438 87.25C135.271 93.75 132.021 97.6667 127.688 99C126.271 99.4167 124.729 99.625 123.062 99.625H107.062V66.25H131.688V62.5H107.062V31.375H123.062C129.479 31.375 134.021 34.7083 136.688 41.375C137.021 42.125 137.312 42.9167 137.562 43.75L139.938 51.5H143.188ZM169.688 61.375C169.688 58.125 168.229 55.75 165.312 54.25C164.146 53.6667 162.938 53.375 161.688 53.375C158.438 53.375 156.104 54.8333 154.688 57.75C154.104 58.9167 153.812 60.125 153.812 61.375C153.812 64.7083 155.271 67.0833 158.188 68.5C159.354 69 160.521 69.25 161.688 69.25C164.938 69.25 167.312 67.8333 168.812 65C169.396 63.8333 169.688 62.625 169.688 61.375ZM169.688 90.125C169.688 86.875 168.271 84.4583 165.438 82.875C164.188 82.125 162.938 81.75 161.688 81.75C158.604 81.75 156.312 83.25 154.812 86.25C154.146 87.5 153.812 88.7917 153.812 90.125C153.812 93.4583 155.271 95.8333 158.188 97.25C159.354 97.75 160.521 98 161.688 98C164.938 98 167.312 96.5833 168.812 93.75C169.396 92.5833 169.688 91.375 169.688 90.125ZM237.812 82.5C237.812 75.4167 233.896 69.4583 226.062 64.625C224.896 63.9583 220.396 61.7083 212.562 57.875C205.396 54.2917 200.938 50.7917 199.188 47.375C198.271 45.5417 197.812 43.6667 197.812 41.75C197.812 36.75 200.229 33.3333 205.062 31.5C206.979 30.75 209.021 30.375 211.188 30.375C218.021 30.375 223.188 32.8333 226.688 37.75C229.021 41.0833 230.188 45.0417 230.188 49.625H234.688V27.25C232.354 27.25 231.021 28.0417 230.688 29.625C230.604 30.2083 230.562 30.875 230.562 31.625C223.979 28.375 216.896 26.75 209.312 26.75C199.646 26.75 192.271 29.3333 187.188 34.5C183.854 37.9167 182.188 41.9583 182.188 46.625C182.188 53.625 186.104 59.5 193.938 64.25C195.188 64.9167 199.771 67.2083 207.688 71.125C215.021 74.7083 219.562 78.25 221.312 81.75C222.229 83.5 222.688 85.3333 222.688 87.25C222.688 93.0833 219.979 97.0833 214.562 99.25C212.396 100.167 209.979 100.625 207.312 100.625C197.396 100.625 190.854 95.75 187.688 86C186.854 83.25 186.312 80.25 186.062 77H181.562V103.25C183.646 103.25 184.896 102.625 185.312 101.375C185.479 100.625 185.562 99.4583 185.562 97.875C192.062 102.125 199.688 104.25 208.438 104.25C218.688 104.25 226.562 101.583 232.062 96.25C235.896 92.5 237.812 87.9167 237.812 82.5ZM297.812 103C297.146 100.917 296.062 99.7917 294.562 99.625H286.062V31.375H289.812C295.896 31.375 300.229 34.4583 302.812 40.625C303.229 41.625 303.604 42.6667 303.938 43.75L307.188 54.125H310.812L310.312 28H246.562L245.938 54.125H249.688L252.938 43.75C254.938 37.25 258.146 33.3333 262.562 32C263.896 31.5833 265.396 31.375 267.062 31.375H270.688V99.625H258.812V103H297.812ZM393.062 103C393.062 101.083 392.479 100 391.312 99.75C390.979 99.6667 390.521 99.625 389.938 99.625H386.062L356.812 28H349.062L321.562 99.625H313.562V103H336.312C336.312 101.083 335.729 100 334.562 99.75C334.146 99.6667 333.688 99.625 333.188 99.625H326.562L335.688 75.625H360.938L370.312 99.625H361.688V103H393.062ZM359.438 71.875H337.062L348.188 42.625L359.438 71.875ZM431.688 103V99.625H421.688V68.75H429.688L448.688 103.125L469.688 103C469.688 101.167 469.146 100.125 468.062 99.875C467.562 99.7917 467.062 99.75 466.562 99.75H463.938L444.312 67.375C452.812 65.125 458.229 60.625 460.562 53.875C461.229 51.7917 461.562 49.7083 461.562 47.625C461.562 41.375 458.812 36.375 453.312 32.625C448.729 29.5417 443.146 28 436.562 28H396.312V31.375H406.312V99.625H396.312V103H431.688ZM430.312 31.375C437.062 31.375 441.604 34.5 443.938 40.75C444.771 43 445.188 45.4167 445.188 48C445.188 54.6667 443.062 59.5417 438.812 62.625C436.562 64.2083 433.979 65 431.062 65H421.688V31.375H430.312ZM524.188 103C523.521 100.917 522.438 99.7917 520.938 99.625H512.438V31.375H516.188C522.271 31.375 526.604 34.4583 529.188 40.625C529.604 41.625 529.979 42.6667 530.312 43.75L533.562 54.125H537.188L536.688 28H472.938L472.312 54.125H476.062L479.312 43.75C481.312 37.25 484.521 33.3333 488.938 32C490.271 31.5833 491.771 31.375 493.438 31.375H497.062V99.625H485.188V103H524.188ZM541.188 31.375H551.188V75.25C551.354 94.5 561.646 104.167 582.062 104.25C595.729 104.25 604.271 98.9583 607.688 88.375C608.938 84.2917 609.562 79.4167 609.562 73.75V31.375H619.562V28H595.062V31.375H605.062V74.5C604.979 91.8333 598.188 100.542 584.688 100.625C575.271 100.625 569.521 95.6667 567.438 85.75C566.771 82.5 566.438 78.7083 566.438 74.375V31.375H576.438V28H541.188V31.375ZM667.562 31.375V28H631.438V31.375H642.688V80.125C642.688 91.7083 641.562 98.625 639.312 100.875C638.396 101.792 637.229 102.25 635.812 102.25C633.562 102.25 632.146 100.875 631.562 98.125C631.396 97.7083 631.229 97.0833 631.062 96.25C630.396 92.6667 629.271 90.375 627.688 89.375C626.521 88.7083 625.104 88.375 623.438 88.375C620.438 88.375 618.438 89.75 617.438 92.5C617.188 93.3333 617.062 94.125 617.062 94.875C617.062 98.4583 619.229 101.292 623.562 103.375C626.479 104.708 630.021 105.375 634.188 105.375C643.771 105.375 650.562 101.792 654.562 94.625C656.812 90.4583 657.938 85.3333 657.938 79.25V31.375H667.562Z" fill="black"/>
</svg>
